#!OML:ASF H:\MichaelJackson\Top Level 1\Subject 1\Session 1\male.ASF
:FULLY-SPECIFIED
:DEGREES
435
root 16.0797 12.2372 -28.318 -155.762 85.4528 -147.495
lowerback 9.83416 1.09858 0.173498
upperback -0.815728 1.26443 -5.61854
thorax -6.26344 0.56889 -6.25116
lowerneck -11.0563 -11.464 0.659513
upperneck 7.41655 -16.2862 8.19741
head 4.66073 -7.44549 1.17827
rclavicle 1.15295e-014 -6.36111e-015
rhumerus 37.0008 5.65006 -61.421
rradius 129.597
rwrist -56.1818
rhand -24.9293 -24.8433
rfingers 7.12502
rthumb 1.57987 -54.8172
lclavicle 1.15295e-014 -6.36111e-015
lhumerus -39.2797 -24.6462 89.1443
lradius 60.7233
lwrist 23.6455
lhand -24.7595 5.12746
lfingers 7.12502
lthumb 1.74381 35.1001
rfemur -63.1097 1.34366 27.8596
rtibia 81.2257
rfoot -1.90691 -2.19346
rtoes 27.524
lfemur 9.90098 -0.277691 -3.38896
ltibia 81.3708
lfoot -30.5607 -37.889
ltoes 23.3843
436
root 15.9717 12.3763 -28.3196 -153.212 85.8892 -144.786
lowerback 9.6394 0.781433 0.0912222
upperback -0.852903 0.829418 -5.74583
thorax -6.23928 0.355852 -6.27163
lowerneck -10.8229 -11.4677 1.00993
upperneck 7.04262 -16.2955 8.23942
head 4.48385 -7.46138 1.1684
rclavicle 1.19271e-014 -9.54166e-014
rhumerus 37.2293 3.89361 -60.2962
rradius 129.284
rwrist -57.5014
rhand -24.8727 -24.9991
rfingers 7.12502
rthumb 1.63452 -54.9726
lclavicle 1.19271e-014 -9.54166e-014
lhumerus -39.1106 -27.3217 89.2028
lradius 61.841
lwrist 24.2961
lhand -24.0699 4.95245
lfingers 7.12502
lthumb 2.40981 34.9186
rfemur -61.9261 1.45214 27.7898
rtibia 79.0098
rfoot -0.761252 -1.64921
rtoes 29.1348
lfemur 10.2575 0.147532 -3.85116
ltibia 80.1481
lfoot -31.4743 -36.7815
ltoes 22.4685
437
root 15.8549 12.5215 -28.3194 -149.254 86.3888 -140.858
lowerback 9.28044 0.444477 -0.0107578
upperback -0.908304 0.369832 -5.88888
thorax -6.14433 0.132063 -6.29114
lowerneck -10.5401 -11.4879 1.2874
upperneck 6.60165 -16.3186 8.41144
head 4.29649 -7.48325 1.20982
rclavicle -8.54774e-015 1.27222e-014
rhumerus 37.4978 2.1377 -59.2755
rradius 128.941
rwrist -58.4905
rhand -24.9234 -25.1465
rfingers 7.12502
rthumb 1.58553 -55.1204
lclavicle -8.54774e-015 1.27222e-014
lhumerus -38.8522 -30.0068 89.0516
lradius 63.0272
lwrist 24.848
lhand -23.4044 4.87801
lfingers 7.12502
lthumb 3.05257 34.8359
rfemur -60.8852 1.56663 27.7544
rtibia 76.6069
rfoot 0.560504 -1.04486
rtoes 30.9905
lfemur 10.3444 0.712171 -4.28768
ltibia 78.9962
lfoot -32.2388 -35.6137
ltoes 21.4931
438
root 15.7302 12.6731 -28.3185 -142.334 86.9633 -134.126
lowerback 8.77259 0.109155 -0.116506
upperback -0.97886 -0.0826926 -6.03256
thorax -5.98027 -0.0876401 -6.31049
lowerneck -10.2198 -11.5314 1.49014
upperneck 6.12008 -16.3635 8.68137
head 4.10638 -7.51625 1.29116
rclavicle -2.78299e-015 1.90833e-014
rhumerus 37.7891 0.363164 -58.3431
rradius 128.561
rwrist -59.1839
rhand -24.9761 -25.3306
rfingers 7.12502
rthumb 1.53467 -55.3048
lclavicle -2.78299e-015 1.90833e-014
lhumerus -38.4191 -32.5919 88.6601
lradius 64.1989
lwrist 25.2742
lhand -22.682 4.87473
lfingers 7.12502
lthumb 3.75021 34.8215
rfemur -59.9389 1.68407 27.7844
rtibia 73.9909
rfoot 2.09495 -0.34467
rtoes 33.0553
lfemur 10.2306 1.45126 -4.69791
ltibia 77.879
lfoot -32.9204 -34.3498
ltoes 20.3101
439
root 15.5978 12.8327 -28.3179 -129.913 87.55 -121.993
lowerback 8.19244 -0.21351 -0.219262
upperback -1.0583 -0.513803 -6.15876
thorax -5.78209 -0.296991 -6.31991
lowerneck -9.86706 -11.6074 1.54333
upperneck 5.36917 -16.4116 8.88321
head 4.23502 -7.5828 1.54744
rclavicle -1.98785e-016 0
rhumerus 38.0755 -1.42087 -57.4616
rradius 128.117
rwrist -59.5915
rhand -24.9406 -25.4946
rfingers 7.12502
rthumb 1.56898 -55.4685
lclavicle -1.98785e-016 0
lhumerus -37.7431 -34.994 88.0346
lradius 65.2777
lwrist 25.5291
lhand -21.8825 4.95428
lfingers 7.12502
lthumb 4.5222 34.886
rfemur -58.9934 1.80949 27.8749
rtibia 71.1319
rfoot 3.85922 0.422785
rtoes 35.2112
lfemur 9.99787 2.32301 -5.1066
ltibia 76.7515
lfoot -33.5191 -32.9826
ltoes 18.9089
440
root 15.4578 13.0002 -28.3192 -107.68 87.9837 -100.058
lowerback 7.64219 -0.509579 -0.309302
upperback -1.13188 -0.906525 -6.25167
thorax -5.59002 -0.488254 -6.31194
lowerneck -9.53002 -11.7062 1.69738
upperneck 4.89801 -16.5157 9.12846
head 4.01604 -7.65116 1.62827
rclavicle 2.98177e-015 2.38542e-014
rhumerus 38.3364 -3.2176 -56.6047
rradius 127.589
rwrist -59.8133
rhand -24.7163 -25.5976
rfingers 7.12502
rthumb 1.78558 -55.5699
lclavicle 2.98177e-015 2.38542e-014
lhumerus -36.7894 -37.1746 87.205
lradius 66.2209
lwrist 25.626
lhand -21.0318 5.17128
lfingers 7.12502
lthumb 5.34369 35.0839
rfemur -57.9369 1.87411 28.0507
rtibia 68.0155
rfoot 5.8605 1.29023
rtoes 37.4867
lfemur 9.76625 3.28023 -5.52688
ltibia 75.5647
lfoot -34.0244 -31.5285
ltoes 17.381
441
root 15.3114 13.1743 -28.3228 -76.2975 87.9543 -68.9756
lowerback 7.14828 -0.76167 -0.405027
upperback -1.21689 -1.24147 -6.28473
thorax -5.43368 -0.651636 -6.24889
lowerneck -9.22521 -11.8339 1.85721
upperneck 4.47803 -16.6552 9.25645
head 3.81121 -7.74132 1.66478
rclavicle -1.47101e-014 -1.90833e-014
rhumerus 38.5454 -4.96512 -55.7068
rradius 126.965
rwrist -59.8849
rhand -24.3125 -25.5761
rfingers 7.12502
rthumb 2.17552 -55.5448
lclavicle -1.47101e-014 -1.90833e-014
lhumerus -35.5801 -39.1009 86.2382
lradius 67.0007
lwrist 25.5209
lhand -20.1386 5.45107
lfingers 7.12502
lthumb 6.20603 35.3402
rfemur -56.7503 1.86141 28.3378
rtibia 64.6353
rfoot 8.11556 2.26674
rtoes 39.5461
lfemur 9.57594 4.31244 -5.95989
ltibia 74.2824
lfoot -34.4867 -29.9598
ltoes 15.6698
442
root 15.16 13.3528 -28.3291 -50.4396 87.3014 -43.4185
lowerback 6.70213 -0.968666 -0.496776
upperback -1.31315 -1.51642 -6.25661
thorax -5.30701 -0.786035 -6.13345
lowerneck -8.98114 -11.9721 2.05473
upperneck 4.14219 -16.8121 9.23085
head 3.6288 -7.84232 1.64009
rclavicle 1.19271e-015 -6.36111e-015
rhumerus 38.7004 -6.59306 -54.7488
rradius 126.259
rwrist -59.869
rhand -23.8391 -25.3627
rfingers 7.12502
rthumb 2.63276 -55.3262
lclavicle 1.19271e-015 -6.36111e-015
lhumerus -34.1448 -40.7723 85.1518
lradius 67.6448
lwrist 25.2773
lhand -19.2767 5.76101
lfingers 7.12502
lthumb 7.0381 35.624
rfemur -55.432 1.73551 28.7474
rtibia 61.0075
rfoot 10.6144 3.36303
rtoes 41.3398
lfemur 9.4509 5.39945 -6.41431
ltibia 72.8825
lfoot -34.9233 -28.2953
ltoes 13.856
443
root 15.0054 13.5339 -28.3382 -35.5076 86.2173 -28.7963
lowerback 6.29371 -1.13531 -0.596293
upperback -1.43122 -1.73897 -6.15664
thorax -5.21497 -0.894711 -5.94542
lowerneck -8.79886 -12.1162 2.2698
upperneck 3.90129 -16.9812 9.05334
head 3.47383 -7.95062 1.55868
rclavicle 1.63003e-014 1.59028e-015
rhumerus 38.8088 -8.08282 -53.7441
rradius 125.54
rwrist -59.9744
rhand -23.2761 -25.0905
rfingers 7.12502
rthumb 3.17645 -55.0465
lclavicle 1.63003e-014 1.59028e-015
lhumerus -32.5063 -42.1216 83.9779
lradius 68.1424
lwrist 24.8665
lhand -18.3115 5.99263
lfingers 7.12502
lthumb 7.9697 35.8224
rfemur -54.0001 1.47498 29.273
rtibia 57.171
rfoot 13.3156 4.57667
rtoes 42.6703
lfemur 9.39393 6.5213 -6.89147
ltibia 71.3591
lfoot -35.3347 -26.5884
ltoes 12.1187
444
root 14.8492 13.7137 -28.3503 -27.0963 84.8921 -20.7167
lowerback 5.89235 -1.26174 -0.665214
upperback -1.56008 -1.90486 -6.01423
thorax -5.13028 -0.976256 -5.73826
lowerneck -8.70119 -12.2633 2.52488
upperneck 3.74704 -17.1632 8.74689
head 3.34711 -8.06397 1.424
rclavicle -8.74653e-015 -6.04305e-014
rhumerus 38.8261 -9.40887 -52.6458
rradius 124.868
rwrist -60.0836
rhand -22.8578 -24.7669
rfingers 7.12502
rthumb 3.58044 -54.7165
lclavicle -8.74653e-015 -6.04305e-014
lhumerus -30.7636 -43.3041 82.692
lradius 68.6683
lwrist 24.4672
lhand -17.4287 6.19351
lfingers 7.12502
lthumb 8.82169 35.9891
rfemur -52.497 1.01812 29.9328
rtibia 53.1929
rfoot 16.1081 6.01935
rtoes 42.9815
lfemur 9.38944 7.6529 -7.40494
ltibia 69.7269
lfoot -35.7405 -24.8469
ltoes 10.5368
445
root 14.6931 13.8888 -28.3652 -21.8619 83.4113 -15.861
lowerback 5.45385 -1.37277 -0.70125
upperback -1.7087 -2.04629 -5.84886
thorax -5.04169 -1.04669 -5.53082
lowerneck -8.65727 -12.3827 2.75874
upperneck 3.6873 -17.3183 8.43036
head 3.26344 -8.15845 1.28661
rclavicle 1.63003e-014 3.33958e-014
rhumerus 38.7852 -10.5434 -51.5503
rradius 124.297
rwrist -60.255
rhand -22.5705 -24.5218
rfingers 7.12502
rthumb 3.8579 -54.4666
lclavicle 1.63003e-014 3.33958e-014
lhumerus -28.9887 -44.278 81.2552
lradius 69.2858
lwrist 24.1279
lhand -16.6658 6.33235
lfingers 7.12502
lthumb 9.55784 36.0956
rfemur -50.9965 0.325191 30.7286
rtibia 49.1831
rfoot 18.8464 7.79722
rtoes 42.0127
lfemur 9.40445 8.79318 -7.96756
ltibia 68.0138
lfoot -36.1734 -23.0548
ltoes 9.10057
446
root 14.5383 14.0552 -28.3827 -18.2493 81.8356 -12.679
lowerback 4.97288 -1.47287 -0.697829
upperback -1.87344 -2.16881 -5.67361
thorax -4.94402 -1.10885 -5.3403
lowerneck -8.66378 -12.4777 2.96031
upperneck 3.69236 -17.4487 8.1334
head 3.21617 -8.23539 1.15739
rclavicle -2.78299e-015 7.15625e-014
rhumerus 38.6844 -11.515 -50.462
rradius 123.862
rwrist -60.4595
rhand -22.4502 -24.4147
rfingers 7.12502
rthumb 3.97402 -54.3574
lclavicle -2.78299e-015 7.15625e-014
lhumerus -27.2034 -45.0484 79.6744
lradius 70.0293
lwrist 23.8701
lhand -15.9214 6.41592
lfingers 7.12502
lthumb 10.276 36.1449
rfemur -49.5697 -0.656161 31.6739
rtibia 45.3003
rfoot 21.2401 10.1151
rtoes 38.9957
lfemur 9.41289 9.93104 -8.59226
ltibia 66.2603
lfoot -36.6749 -21.1452
ltoes 7.69508
447
root 14.3856 14.2102 -28.4021 -15.4295 80.1943 -10.3526
lowerback 4.43416 -1.56575 -0.653437
upperback -2.05061 -2.27717 -5.50477
thorax -4.82636 -1.16506 -5.18462
lowerneck -8.71055 -12.5423 3.11573
upperneck 3.71894 -17.5422 7.90137
head 3.19459 -8.28932 1.05426
rclavicle -2.78299e-015 -5.56597e-014
rhumerus 38.5415 -12.3426 -49.4043
rradius 123.57
rwrist -60.6154
rhand -22.5266 -24.4876
rfingers 7.12502
rthumb 3.90021 -54.4317
lclavicle -2.78299e-015 -5.56597e-014
lhumerus -25.4266 -45.6163 77.9434
lradius 70.9373
lwrist 23.7207
lhand -15.2499 6.48762
lfingers 7.12502
lthumb 10.9237 36.1835
rfemur -48.3134 -1.9222 32.7527
rtibia 41.7557
rfoot 22.9387 12.9731
rtoes 33.3221
lfemur 9.37326 11.0609 -9.29987
ltibia 64.5071
lfoot -37.2112 -19.1455
ltoes 6.38723
448
root 14.2349 14.352 -28.4245 -12.9858 78.5422 -8.45715
lowerback 3.86172 -1.66358 -0.5677
upperback -2.23996 -2.38947 -5.35621
thorax -4.70482 -1.22455 -5.07672
lowerneck -8.78725 -12.5794 3.2422
upperneck 3.73845 -17.5998 7.71313
head 3.1829 -8.32325 0.969359
rclavicle 1.70955e-014 3.18055e-015
rhumerus 38.378 -13.0594 -48.4019
rradius 123.396
rwrist -60.7388
rhand -22.7409 -24.6863
rfingers 7.12502
rthumb 3.69327 -54.634
lclavicle 1.70955e-014 3.18055e-015
lhumerus -23.691 -45.979 76.09
lradius 72.0215
lwrist 23.6921
lhand -14.6515 6.56264
lfingers 7.12502
lthumb 11.5008 36.2271
rfemur -47.3415 -3.51317 33.9322
rtibia 38.8086
rfoot 23.635 16.3365
rtoes 24.3888
lfemur 9.24194 12.1453 -10.1321
ltibia 62.7944
lfoot -37.7337 -17.0629
ltoes 5.2261
449
root 14.0855 14.4822 -28.4483 -10.7451 76.8525 -6.78526
lowerback 3.29909 -1.75221 -0.465059
upperback -2.43717 -2.49011 -5.22415
thorax -4.59741 -1.27883 -4.9989
lowerneck -8.87431 -12.5886 3.31694
upperneck 3.72625 -17.6171 7.59409
head 3.1741 -8.33592 0.915831
rclavicle -7.7526e-015 5.08889e-014
rhumerus 38.2152 -13.6704 -47.4726
rradius 123.304
rwrist -60.745
rhand -23.0826 -25.0282
rfingers 7.12502
rthumb 3.36331 -54.9814
lclavicle -7.7526e-015 5.08889e-014
lhumerus -22.0281 -46.1258 74.156
lradius 73.2742
lwrist 23.7603
lhand -14.1312 6.63052
lfingers 7.12502
lthumb 12.0026 36.2664
rfemur -46.7072 -5.1929 35.0921
rtibia 36.7359
rfoot 22.9229 19.8608
rtoes 11.8103
lfemur 9.04003 13.2173 -11.0664
ltibia 61.14
lfoot -38.2228 -14.9011
ltoes 4.08461
